# File produced by Open Asset Import Library (http://www.assimp.sf.net)
# (assimp v3.2.202087883)

mtllib model_normalized.mtl

# 96 vertex positions
v 0.441712 0.089929 -0.179558
v 0.441712 0.097111 -0.172375
v 0.441712 0.089929 -0.172375
v 0.441712 0.097111 -0.179558
v 0.441712 0.097111 0.172375
v 0.330386 0.089929 -0.172375
v 0.448895 0.089929 -0.179558
v 0.323204 0.097111 -0.179558
v 0.448895 0.097111 0.172375
v 0.441712 0.089929 0.172375
v 0.323204 0.089929 -0.172375
v 0.330386 0.089929 -0.179558
v 0.448895 0.097111 -0.179558
v 0.323204 0.097111 -0.172375
v 0.441712 0.097111 0.179558
v 0.323204 0.097111 0.172375
v 0.448895 0.097111 0.179558
v 0.323204 -0.129132 -0.172375
v 0.448895 0.089929 0.172375
v 0.330386 -0.129132 -0.179558
v 0.323204 0.089929 -0.179558
v 0.441712 0.089929 0.179558
v 0.330386 0.089929 0.172375
v 0.330386 -0.129132 -0.172375
v 0.448895 0.089929 0.179558
v 0.330386 0.089929 0.179558
v 0.323204 0.097111 0.179558
v 0.323204 0.089929 0.172375
v 0.323204 -0.136314 -0.172375
v 0.330386 -0.129132 0.172375
v 0.323204 -0.129132 -0.179558
v 0.330386 -0.136314 -0.179558
v 0.323204 0.089929 0.179558
v 0.330386 -0.136314 -0.172375
v 0.323204 -0.136314 0.172375
v 0.323204 -0.129132 0.172375
v 0.323204 -0.129132 0.179558
v 0.330386 -0.129132 0.179558
v 0.323204 -0.136314 -0.179558
v 0.330386 -0.136314 0.172375
v 0.323204 -0.136314 0.179558
v 0.330386 -0.136314 0.179558
v -0.441712 0.089929 0.179558
v -0.441712 0.097111 0.172375
v -0.441712 0.089929 0.172375
v -0.441712 0.097111 0.179558
v -0.441712 0.097111 -0.172375
v -0.330386 0.089929 0.172375
v -0.448895 0.089929 0.179558
v -0.323204 0.097111 0.179558
v -0.448895 0.097111 -0.172375
v -0.441712 0.089929 -0.172375
v -0.323204 0.089929 0.172375
v -0.330386 0.089929 0.179558
v -0.448895 0.097111 0.179558
v -0.323204 0.097111 0.172375
v -0.441712 0.097111 -0.179558
v -0.323204 0.097111 -0.172375
v -0.448895 0.097111 -0.179558
v -0.323204 -0.129132 0.172375
v -0.448895 0.089929 -0.172375
v -0.330386 -0.129132 0.179558
v -0.323204 0.089929 0.179558
v -0.441712 0.089929 -0.179558
v -0.330386 0.089929 -0.172375
v -0.330386 -0.129132 0.172375
v -0.448895 0.089929 -0.179558
v -0.330386 0.089929 -0.179558
v -0.323204 0.097111 -0.179558
v -0.323204 0.089929 -0.172375
v -0.323204 -0.136314 0.172375
v -0.330386 -0.129132 -0.172375
v -0.323204 -0.129132 0.179558
v -0.330386 -0.136314 0.179558
v -0.323204 0.089929 -0.179558
v -0.330386 -0.136314 0.172375
v -0.323204 -0.136314 -0.172375
v -0.323204 -0.129132 -0.172375
v -0.323204 -0.129132 -0.179558
v -0.330386 -0.129132 -0.179558
v -0.323204 -0.136314 0.179558
v -0.330386 -0.136314 -0.172375
v -0.323204 -0.136314 -0.179558
v -0.330386 -0.136314 -0.179558
v 0.448895 0.118658 0.179558
v -0.448895 0.118658 -0.179558
v 0.448895 0.118658 -0.179558
v -0.448895 0.118658 0.179558
v -0.323204 -0.129132 -0.003591
v 0.323204 -0.129132 0.003591
v 0.323204 -0.129132 -0.003591
v -0.323204 -0.129132 0.003591
v 0.323204 -0.136314 -0.003591
v -0.323204 -0.136314 0.003591
v 0.323204 -0.136314 0.003591
v -0.323204 -0.136314 -0.003591

# 0 UV coordinates

# 54 vertex normals
vn 0.00846666 -0.0169333 -0.0169333
vn 0.0254 0 0
vn 0.0113592 -0.0227184 -0
vn 0.0113592 0 -0.0227184
vn -0.0113592 0.0227184 0
vn -0.0254 0 0
vn -0.00846666 0.0169333 0.0169333
vn -0.0113592 0 0.0227184
vn 0 0 0.0254
vn 0 -0.0113592 0.0227184
vn -0 0 -0.0254
vn 0 0.0113592 -0.0227184
vn -0 -0.0254 0
vn 0 0.0254 0
vn 0.00803219 -0.0240966 0
vn -0.00803219 0.0240966 0
vn -0 -0.0113592 -0.0227184
vn 0 0.0113592 0.0227184
vn 0.0113592 0 0.0227184
vn -0.0113592 0 -0.0227184
vn -0.0211341 0 0.0140894
vn 0.0211341 -0 -0.0140894
vn 0.0169333 -0.00846666 -0.0169333
vn -0.0169333 0.00846666 0.0169333
vn 0.00846666 -0.0169333 0.0169333
vn -0.00846666 0.0169333 -0.0169333
vn 0.0211341 0 0.0140894
vn -0.0211341 0 -0.0140894
vn -0.0169333 -0.0169333 0.00846666
vn 0.0169333 0.0169333 -0.00846666
vn 0.0227184 0 -0.0113592
vn -0.0227184 0 0.0113592
vn -0.0169333 -0.00846666 -0.0169333
vn 0.0169333 0.00846666 0.0169333
vn 0.0169333 -0.0169333 0.00846666
vn -0.0169333 0.0169333 -0.00846666
vn -0.0240966 0 -0.00803219
vn 0.0240966 0 0.00803219
vn -0.0169333 -0.00846666 0.0169333
vn 0.0169333 0.00846666 -0.0169333
vn 0.0169333 -0.00846666 0.0169333
vn -0.0169333 0.00846666 -0.0169333
vn -0.00846666 -0.0169333 0.0169333
vn -0.0113592 -0.0227184 0
vn 0.0113592 0.0227184 0
vn 0.00846666 0.0169333 -0.0169333
vn -0.00803219 -0.0240966 0
vn 0.00803219 0.0240966 0
vn -0.00846666 -0.0169333 -0.0169333
vn 0.00846666 0.0169333 0.0169333
vn 0.0169333 -0.0169333 -0.00846666
vn -0.0169333 0.0169333 0.00846666
vn -0.0169333 -0.0169333 -0.00846666
vn 0.0169333 0.0169333 0.00846666

# Mesh 'mesh1_mesh1-geometry' with 196 faces
g mesh1_mesh1-geometry
usemtl material_0_24
f  1//1 2//2 3//3
f  2//2 1//1 4//4
f  3//5 2//6 1//7
f  4//8 1//7 2//6
f  3//6 5//6 2//6
f  2//2 5//2 3//2
f  2//9 6//10 3//9
f  3//11 6//12 2//11
f  7//13 3//3 1//1
f  1//7 3//5 7//14
f  6//13 1//1 3//3
f  3//5 1//7 6//14
f  4//4 7//11 1//1
f  1//7 7//9 4//8
f  1//1 8//11 4//4
f  4//8 8//9 1//7
f  2//14 9//14 4//14
f  4//13 9//13 2//13
f  8//14 2//14 4//14
f  4//13 2//13 8//13
f  5//6 3//6 10//6
f  10//2 3//2 5//2
f  9//14 2//14 5//14
f  5//13 2//13 9//13
f  6//10 2//9 11//10
f  11//12 2//11 6//12
f  3//3 7//13 10//15
f  10//16 7//14 3//5
f  1//1 6//13 12//13
f  12//14 6//14 1//7
f  7//11 4//4 13//11
f  13//9 4//8 7//9
f  12//17 8//11 1//1
f  1//7 8//9 12//18
f  4//14 9//14 13//14
f  13//13 9//13 4//13
f  2//14 8//14 14//14
f  14//13 8//13 2//13
f  15//19 10//15 5//2
f  5//6 10//16 15//20
f  10//11 16//11 5//11
f  5//9 16//9 10//9
f  5//14 17//14 9//14
f  9//13 17//13 5//13
f  11//10 2//9 14//9
f  14//11 2//11 11//12
f  11//10 12//17 6//10
f  6//12 12//18 11//12
f  18//21 6//10 11//10
f  11//12 6//12 18//22
f  10//15 7//13 19//13
f  19//14 7//14 10//16
f  6//2 20//23 12//2
f  12//6 20//24 6//6
f  9//2 7//2 13//2
f  13//6 7//6 9//6
f  8//11 12//17 21//17
f  21//18 12//18 8//9
f  8//6 11//6 14//6
f  14//2 11//2 8//2
f  10//15 15//19 22//25
f  22//26 15//20 10//16
f  17//14 5//14 15//14
f  15//13 5//13 17//13
f  16//14 15//14 5//14
f  5//13 15//13 16//13
f  23//17 16//11 10//11
f  10//9 16//9 23//18
f  17//2 19//2 9//2
f  9//6 19//6 17//6
f  12//17 11//10 21//17
f  21//18 11//12 12//18
f  6//10 18//21 24//27
f  24//28 18//22 6//12
f  21//6 18//21 11//6
f  11//2 18//22 21//2
f  7//2 9//2 19//2
f  19//6 9//6 7//6
f  25//13 10//15 19//13
f  19//14 10//16 25//14
f  20//23 6//2 24//27
f  24//28 6//6 20//24
f  20//23 21//17 12//17
f  12//18 21//18 20//24
f  11//6 8//6 21//6
f  21//2 8//2 11//2
f  22//25 17//9 15//19
f  15//20 17//11 22//26
f  15//19 26//10 22//25
f  22//26 26//12 15//20
f  10//15 25//13 22//25
f  22//26 25//14 10//16
f  26//13 10//15 22//25
f  22//26 10//16 26//14
f  15//14 16//14 27//14
f  27//13 16//13 15//13
f  16//11 23//17 28//17
f  28//18 23//18 16//9
f  10//15 26//13 23//13
f  23//14 26//14 10//16
f  19//2 17//2 25//2
f  25//6 17//6 19//6
f  29//29 24//27 18//21
f  18//22 24//28 29//30
f  18//21 30//31 24//27
f  24//28 30//32 18//22
f  18//21 20//23 24//27
f  24//28 20//24 18//22
f  18//21 21//6 31//33
f  31//34 21//2 18//22
f  24//27 32//2 20//23
f  20//24 32//6 24//28
f  21//17 20//23 31//33
f  31//34 20//24 21//18
f  17//9 22//25 25//9
f  25//11 22//26 17//11
f  26//10 15//19 33//10
f  33//12 15//20 26//12
f  16//6 33//6 27//6
f  27//2 33//2 16//2
f  33//10 15//19 27//9
f  27//11 15//20 33//12
f  30//31 28//17 23//17
f  23//18 28//18 30//32
f  23//17 33//10 28//17
f  28//18 33//12 23//18
f  33//6 16//6 28//6
f  28//2 16//2 33//2
f  26//2 30//31 23//2
f  23//6 30//32 26//6
f  33//10 23//17 26//10
f  26//12 23//18 33//12
f  24//27 29//29 34//35
f  34//36 29//30 24//28
f  31//33 29//29 18//21
f  18//22 29//30 31//34
f  35//6 18//21 29//29
f  29//30 18//22 35//2
f  30//31 18//21 36//37
f  36//38 18//22 30//32
f  30//2 34//35 24//27
f  24//28 34//36 30//6
f  20//23 18//21 31//33
f  31//34 18//22 20//24
f  32//2 24//27 34//35
f  34//36 24//28 32//6
f  32//11 31//33 20//23
f  20//24 31//34 32//9
f  37//39 26//10 33//10
f  33//12 26//12 37//40
f  28//17 30//31 36//37
f  36//38 30//32 28//18
f  28//6 37//39 33//6
f  33//2 37//40 28//2
f  30//31 26//2 38//41
f  38//42 26//6 30//32
f  34//35 35//13 29//29
f  29//30 35//14 34//36
f  29//29 32//13 34//35
f  34//36 32//14 29//30
f  29//29 31//33 39//6
f  39//2 31//34 29//30
f  18//21 35//6 36//37
f  36//38 35//2 18//22
f  30//31 37//39 36//37
f  36//38 37//40 30//32
f  34//35 30//2 40//2
f  40//6 30//6 34//36
f  31//33 32//11 39//11
f  39//9 32//9 31//34
f  26//10 37//39 38//41
f  38//42 37//40 26//12
f  37//39 28//6 36//37
f  36//38 28//2 37//40
f  38//41 40//2 30//31
f  30//32 40//6 38//42
f  37//39 30//31 38//41
f  38//42 30//32 37//40
f  35//13 34//35 40//13
f  40//14 34//36 35//14
f  32//13 29//29 39//13
f  39//14 29//30 32//14
f  41//6 36//37 35//6
f  35//2 36//38 41//2
f  36//37 41//6 37//39
f  37//40 41//2 36//38
f  41//9 38//41 37//39
f  37//40 38//42 41//11
f  40//2 38//41 42//2
f  42//6 38//42 40//6
f  40//13 41//13 35//13
f  35//14 41//14 40//14
f  38//41 41//9 42//9
f  42//11 41//11 38//42
f  41//13 40//13 42//13
f  42//14 40//14 41//14

# Mesh 'mesh2_mesh2-geometry' with 58 faces
g mesh2_mesh2-geometry
usemtl material_1_0
l  6 24
l  6 12
l  6 3
l  24 30
l  12 20
l  12 1
l  2 3
l  3 10
l  30 40
l  23 30
l  20 32
l  1 7
l  2 4
l  2 5
l  2 14
l  23 10
l  5 10
l  34 40
l  42 40
l  26 23
l  34 32
l  32 39
l  19 7
l  13 7
l  4 13
l  8 4
l  15 5
l  5 9
l  16 5
l  11 14
l  14 8
l  38 42
l  42 41
l  26 22
l  26 38
l  31 39
l  29 39
l  25 19
l  9 13
l  21 8
l  15 17
l  27 15
l  17 9
l  27 16
l  28 16
l  11 21
l  11 18
l  41 35
l  37 41
l  22 25
l  21 31
l  29 35
l  17 25
l  33 27
l  33 28
l  28 36
l  18 36
l  33 37

# Mesh 'mesh3_mesh3-geometry' with 196 faces
g mesh3_mesh3-geometry
usemtl material_0_24
f  43//43 44//6 45//44
f  44//6 43//43 46//8
f  45//45 44//2 43//46
f  46//4 43//46 44//2
f  45//2 47//2 44//2
f  44//6 47//6 45//6
f  44//11 48//17 45//11
f  45//9 48//18 44//9
f  49//13 45//44 43//43
f  43//46 45//45 49//14
f  48//13 43//43 45//44
f  45//45 43//46 48//14
f  46//8 49//9 43//43
f  43//46 49//11 46//4
f  43//43 50//9 46//8
f  46//4 50//11 43//46
f  44//14 51//14 46//14
f  46//13 51//13 44//13
f  50//14 44//14 46//14
f  46//13 44//13 50//13
f  47//2 45//2 52//2
f  52//6 45//6 47//6
f  51//14 44//14 47//14
f  47//13 44//13 51//13
f  48//17 44//11 53//17
f  53//18 44//9 48//18
f  45//44 49//13 52//47
f  52//48 49//14 45//45
f  43//43 48//13 54//13
f  54//14 48//14 43//46
f  49//9 46//8 55//9
f  55//11 46//4 49//11
f  54//10 50//9 43//43
f  43//46 50//11 54//12
f  46//14 51//14 55//14
f  55//13 51//13 46//13
f  44//14 50//14 56//14
f  56//13 50//13 44//13
f  57//20 52//47 47//6
f  47//2 52//48 57//19
f  52//9 58//9 47//9
f  47//11 58//11 52//11
f  47//14 59//14 51//14
f  51//13 59//13 47//13
f  53//17 44//11 56//11
f  56//9 44//9 53//18
f  53//17 54//10 48//17
f  48//18 54//12 53//18
f  60//22 48//17 53//17
f  53//18 48//18 60//21
f  52//47 49//13 61//13
f  61//14 49//14 52//48
f  48//6 62//39 54//6
f  54//2 62//40 48//2
f  51//6 49//6 55//6
f  55//2 49//2 51//2
f  50//9 54//10 63//10
f  63//12 54//12 50//11
f  50//2 53//2 56//2
f  56//6 53//6 50//6
f  52//47 57//20 64//49
f  64//50 57//19 52//48
f  59//14 47//14 57//14
f  57//13 47//13 59//13
f  58//14 57//14 47//14
f  47//13 57//13 58//13
f  65//10 58//9 52//9
f  52//11 58//11 65//12
f  59//6 61//6 51//6
f  51//2 61//2 59//2
f  54//10 53//17 63//10
f  63//12 53//18 54//12
f  48//17 60//22 66//28
f  66//27 60//21 48//18
f  63//2 60//22 53//2
f  53//6 60//21 63//6
f  49//6 51//6 61//6
f  61//2 51//2 49//2
f  67//13 52//47 61//13
f  61//14 52//48 67//14
f  62//39 48//6 66//28
f  66//27 48//2 62//40
f  62//39 63//10 54//10
f  54//12 63//12 62//40
f  53//2 50//2 63//2
f  63//6 50//6 53//6
f  64//49 59//11 57//20
f  57//19 59//9 64//50
f  57//20 68//17 64//49
f  64//50 68//18 57//19
f  52//47 67//13 64//49
f  64//50 67//14 52//48
f  68//13 52//47 64//49
f  64//50 52//48 68//14
f  57//14 58//14 69//14
f  69//13 58//13 57//13
f  58//9 65//10 70//10
f  70//12 65//12 58//11
f  52//47 68//13 65//13
f  65//14 68//14 52//48
f  61//6 59//6 67//6
f  67//2 59//2 61//2
f  71//51 66//28 60//22
f  60//21 66//27 71//52
f  60//22 72//32 66//28
f  66//27 72//31 60//21
f  60//22 62//39 66//28
f  66//27 62//40 60//21
f  60//22 63//2 73//41
f  73//42 63//6 60//21
f  66//28 74//6 62//39
f  62//40 74//2 66//27
f  63//10 62//39 73//41
f  73//42 62//40 63//12
f  59//11 64//49 67//11
f  67//9 64//50 59//9
f  68//17 57//20 75//17
f  75//18 57//19 68//18
f  58//2 75//2 69//2
f  69//6 75//6 58//6
f  75//17 57//20 69//11
f  69//9 57//19 75//18
f  72//32 70//10 65//10
f  65//12 70//12 72//31
f  65//10 75//17 70//10
f  70//12 75//18 65//12
f  75//2 58//2 70//2
f  70//6 58//6 75//6
f  68//6 72//32 65//6
f  65//2 72//31 68//2
f  75//17 65//10 68//17
f  68//18 65//12 75//18
f  66//28 71//51 76//53
f  76//54 71//52 66//27
f  73//41 71//51 60//22
f  60//21 71//52 73//42
f  77//2 60//22 71//51
f  71//52 60//21 77//6
f  72//32 60//22 78//38
f  78//37 60//21 72//31
f  72//6 76//53 66//28
f  66//27 76//54 72//2
f  62//39 60//22 73//41
f  73//42 60//21 62//40
f  74//6 66//28 76//53
f  76//54 66//27 74//2
f  74//9 73//41 62//39
f  62//40 73//42 74//11
f  79//23 68//17 75//17
f  75//18 68//18 79//24
f  70//10 72//32 78//38
f  78//37 72//31 70//12
f  70//2 79//23 75//2
f  75//6 79//24 70//6
f  72//32 68//6 80//33
f  80//34 68//2 72//31
f  76//53 77//13 71//51
f  71//52 77//14 76//54
f  71//51 74//13 76//53
f  76//54 74//14 71//52
f  71//51 73//41 81//2
f  81//6 73//42 71//52
f  60//22 77//2 78//38
f  78//37 77//6 60//21
f  72//32 79//23 78//38
f  78//37 79//24 72//31
f  76//53 72//6 82//6
f  82//2 72//2 76//54
f  73//41 74//9 81//9
f  81//11 74//11 73//42
f  68//17 79//23 80//33
f  80//34 79//24 68//18
f  79//23 70//2 78//38
f  78//37 70//6 79//24
f  80//33 82//6 72//32
f  72//31 82//2 80//34
f  79//23 72//32 80//33
f  80//34 72//31 79//24
f  77//13 76//53 82//13
f  82//14 76//54 77//14
f  74//13 71//51 81//13
f  81//14 71//52 74//14
f  83//2 78//38 77//2
f  77//6 78//37 83//6
f  78//38 83//2 79//23
f  79//24 83//6 78//37
f  83//11 80//33 79//23
f  79//24 80//34 83//9
f  82//6 80//33 84//6
f  84//2 80//34 82//2
f  82//13 83//13 77//13
f  77//14 83//14 82//14
f  80//33 83//11 84//11
f  84//9 83//9 80//34
f  83//13 82//13 84//13
f  84//14 82//14 83//14

# Mesh 'mesh4_mesh4-geometry' with 58 faces
g mesh4_mesh4-geometry
usemtl material_1_0
l  48 66
l  48 54
l  48 45
l  66 72
l  54 62
l  54 43
l  44 45
l  45 52
l  72 82
l  65 72
l  62 74
l  43 49
l  44 46
l  44 47
l  44 56
l  65 52
l  47 52
l  76 82
l  84 82
l  68 65
l  76 74
l  74 81
l  61 49
l  55 49
l  46 55
l  50 46
l  57 47
l  47 51
l  58 47
l  53 56
l  56 50
l  80 84
l  84 83
l  68 64
l  68 80
l  73 81
l  71 81
l  67 61
l  51 55
l  63 50
l  57 59
l  69 57
l  59 51
l  69 58
l  70 58
l  53 63
l  53 60
l  83 77
l  79 83
l  64 67
l  63 73
l  71 77
l  59 67
l  75 69
l  75 70
l  70 78
l  60 78
l  75 79

# Mesh 'mesh5_mesh5-geometry' with 56 faces
g mesh5_mesh5-geometry
usemtl material_2_24
f  27//13 13//13 17//13
f  13//13 27//13 8//13
f  17//14 13//14 27//14
f  8//14 27//14 13//14
f  13//2 85//2 17//2
f  17//6 85//6 13//6
f  85//9 27//9 17//9
f  17//11 27//11 85//11
f  27//2 21//2 8//2
f  8//6 21//6 27//6
f  8//11 86//11 13//11
f  13//9 86//9 8//9
f  85//2 13//2 87//2
f  87//6 13//6 85//6
f  27//9 85//9 50//9
f  50//11 85//11 27//11
f  21//2 27//2 33//2
f  33//6 27//6 21//6
f  21//11 69//11 8//11
f  8//9 69//9 21//9
f  69//11 86//11 8//11
f  8//9 86//9 69//9
f  13//11 86//11 87//11
f  87//9 86//9 13//9
f  86//14 85//14 87//14
f  87//13 85//13 86//13
f  50//9 85//9 55//9
f  55//11 85//11 50//11
f  63//9 27//9 50//9
f  50//11 27//11 63//11
f  27//9 63//9 33//9
f  33//11 63//11 27//11
f  33//13 75//13 21//13
f  21//14 75//14 33//14
f  69//11 21//11 75//11
f  75//9 21//9 69//9
f  86//11 69//11 59//11
f  59//9 69//9 86//9
f  85//14 86//14 88//14
f  88//13 86//13 85//13
f  55//9 85//9 88//9
f  88//11 85//11 55//11
f  55//13 69//13 50//13
f  50//14 69//14 55//14
f  69//6 63//6 50//6
f  50//2 63//2 69//2
f  75//13 33//13 63//13
f  63//14 33//14 75//14
f  63//6 69//6 75//6
f  75//2 69//2 63//2
f  69//13 55//13 59//13
f  59//14 55//14 69//14
f  55//6 86//6 59//6
f  59//2 86//2 55//2
f  86//6 55//6 88//6
f  88//2 55//2 86//2

# Mesh 'mesh6_mesh6-geometry' with 24 faces
g mesh6_mesh6-geometry
usemtl material_1_0
l  8 27
l  8 13
l  21 8
l  17 27
l  33 27
l  13 17
l  87 13
l  21 33
l  75 21
l  85 17
l  33 63
l  86 87
l  87 85
l  75 63
l  75 69
l  85 88
l  63 50
l  86 59
l  88 86
l  59 69
l  69 50
l  88 55
l  50 55
l  55 59

# Mesh 'mesh7_mesh7-geometry' with 12 faces
g mesh7_mesh7-geometry
usemtl material_0_24
f  89//14 90//14 91//14
f  90//14 89//14 92//14
f  90//2 93//2 91//2
f  93//11 89//11 91//11
f  89//6 94//6 92//6
f  94//9 90//9 92//9
f  93//2 90//2 95//2
f  89//11 93//11 96//11
f  94//6 89//6 96//6
f  90//9 94//9 95//9
f  94//13 93//13 95//13
f  93//13 94//13 96//13

# Mesh 'mesh7_mesh7-geometry' with 12 faces
g mesh7_mesh7-geometry
usemtl material_2_24
f  91//13 90//13 89//13
f  92//13 89//13 90//13
f  91//6 93//6 90//6
f  91//9 89//9 93//9
f  92//2 94//2 89//2
f  92//11 90//11 94//11
f  95//6 90//6 93//6
f  96//9 93//9 89//9
f  96//2 89//2 94//2
f  95//11 94//11 90//11
f  95//14 93//14 94//14
f  96//14 94//14 93//14

